<svg width="24" height="24" viewBox="0 0 24 24" fill="none" xmlns="http://www.w3.org/2000/svg">
<path d="M12 8.75C12.1339 8.75 12.25 8.86614 12.25 9V14C12.25 14.1339 12.1339 14.25 12 14.25C11.8661 14.25 11.75 14.1339 11.75 14V9C11.75 8.86614 11.8661 8.75 12 8.75Z" fill="black" stroke="black"/>
<path d="M12.0684 16.5049L12.0938 16.5107L12.1191 16.5146C12.1313 16.5164 12.1402 16.5184 12.1562 16.5264L12.1885 16.543L12.2217 16.5537C12.2334 16.5576 12.2518 16.5665 12.2773 16.583C12.3041 16.6044 12.3307 16.6261 12.3574 16.6475C12.448 16.7494 12.5 16.8814 12.5 17C12.4999 17.1178 12.448 17.248 12.3584 17.3496C12.3463 17.3593 12.3343 17.3693 12.3223 17.3789C12.3071 17.3911 12.2916 17.4029 12.2764 17.415C12.2509 17.4315 12.2333 17.4414 12.2217 17.4453L12.1885 17.4561L12.1562 17.4727L12.1191 17.4844L12.1074 17.4863C12.0493 17.496 12.015 17.5 12 17.5C11.9834 17.5 11.9532 17.4949 11.8789 17.4844L11.8438 17.4727L11.8115 17.4561L11.7783 17.4453L11.7227 17.415C11.7077 17.403 11.6927 17.3909 11.6777 17.3789C11.6655 17.3691 11.6529 17.3594 11.6406 17.3496C11.5513 17.2481 11.5001 17.1177 11.5 17C11.5 16.8816 11.5512 16.7493 11.6416 16.6475C11.6683 16.6261 11.695 16.6044 11.7217 16.583C11.7476 16.5662 11.7665 16.5576 11.7783 16.5537L11.8115 16.543L11.8438 16.5264L11.8818 16.5127L11.8975 16.5098L11.9121 16.5068C11.9712 16.4932 12.0309 16.4956 12.0684 16.5049Z" fill="black" stroke="black"/>
<path d="M11.998 2.33984C13.2724 2.33984 14.513 3.16624 15.4609 4.87207V4.87305L21.5215 15.7822C22.3605 17.2925 22.4593 18.6557 21.9395 19.7178L21.8291 19.9229C21.1867 20.9964 19.8932 21.6601 18.0586 21.6602H5.93848C4.1053 21.6601 2.81204 20.9982 2.16895 19.917H2.16992C1.57605 18.9034 1.57901 17.5619 2.31836 16.0723L2.47559 15.7725L8.53516 4.87305C9.48298 3.16697 10.7237 2.34004 11.998 2.33984ZM11.998 2.83984C10.8624 2.84006 9.8673 3.64598 9.11914 4.86523L8.97266 5.11523L8.97168 5.11719L2.92188 16.0264C2.20055 17.3205 2.01009 18.6431 2.60645 19.6709C3.20679 20.7052 4.47031 21.1699 5.94824 21.1699H18.0684C19.55 21.1699 20.7985 20.7035 21.4082 19.6748C21.9817 18.7071 21.8363 17.4894 21.2246 16.2715L21.0957 16.0283V16.0264L15.0254 5.11719L15.0244 5.11523L14.8779 4.86523C14.1297 3.6458 13.1339 2.83984 11.998 2.83984Z" fill="black" stroke="black"/>
</svg>
